PathFileType	4	(X/Y/Z)	/Users/itak/Documents/Research/Walk-IL/dataset/trc/00574_00009.trc
DataRate	CameraRate	NumFrames	NumMarkers	Units	OrigDataRate	OrigDataStartFrame	OrigNumFrames
100.000000	100.000000	4	53	mm	100.000000	217	579
Frame#	Time	RPSI			LPSI			L3			STRN			T10			C7			CLAV			RBAK			LBAK			LSHO			LUPA			LAEL			LAOL			LWTS			LWPS			LFRA			LIFD			LHPS			LHTS			RSHO			RUPA			RAEL			RAOL			RWTS			RWPS			RFRA			RIFD			RHTS			RHPS			RBHD			LFHD			RFHD			LBHD			LHIP			RHIP			RASI			LASI			LKNE			LTHI			LANK			LTIP			LTOE			LMT1			LMT5			LHEE			RKNE			RTHI			RANK			RTIP			RTOE			RMT1			RMT5			RHEE			
		X1	Y1	Z1	X2	Y2	Z2	X3	Y3	Z3	X4	Y4	Z4	X5	Y5	Z5	X6	Y6	Z6	X7	Y7	Z7	X8	Y8	Z8	X9	Y9	Z9	X10	Y10	Z10	X11	Y11	Z11	X12	Y12	Z12	X13	Y13	Z13	X14	Y14	Z14	X15	Y15	Z15	X16	Y16	Z16	X17	Y17	Z17	X18	Y18	Z18	X19	Y19	Z19	X20	Y20	Z20	X21	Y21	Z21	X22	Y22	Z22	X23	Y23	Z23	X24	Y24	Z24	X25	Y25	Z25	X26	Y26	Z26	X27	Y27	Z27	X28	Y28	Z28	X29	Y29	Z29	X30	Y30	Z30	X31	Y31	Z31	X32	Y32	Z32	X33	Y33	Z33	X34	Y34	Z34	X35	Y35	Z35	X36	Y36	Z36	X37	Y37	Z37	X38	Y38	Z38	X39	Y39	Z39	X40	Y40	Z40	X41	Y41	Z41	X42	Y42	Z42	X43	Y43	Z43	X44	Y44	Z44	X45	Y45	Z45	X46	Y46	Z46	X47	Y47	Z47	X48	Y48	Z48	X49	Y49	Z49	X50	Y50	Z50	X51	Y51	Z51	X52	Y52	Z52	X53	Y53	Z53	

218	2.17	-846.079345703125	984.9537353515625	-0.6097327470779419	-737.2338256835938	992.2365112304688	-77.05294036865234	-788.80517578125	1084.042236328125	-30.0762767791748	-639.5215454101562	1263.54248046875	160.5827789306641	-795.6813354492188	1210.338989257812	-31.5153923034668	-770.637451171875	1481.595581054688	26.59815788269043	-649.16162109375	1375.578002929688	148.5658264160156	-881.7911376953125	1357.5859375	25.15103912353516	-723.9977416992188	1432.427978515625	-61.21459579467773	-597.4060668945312	1453.107421875	-42.0126838684082	-547.5638427734375	1327.269287109375	-105.3621444702148	-516.5468139648438	1106.483032226562	-111.7039413452148	-613.0729370117188	1099.602172851562	-141.2909851074219	-494.698974609375	857.9124145507812	-23.86984443664551	-468.9595642089844	840.835693359375	-105.6987609863281	-496.55859375	1019.874572753906	-103.0567398071289	-505.8277587890625	690.3966674804688	-44.15500259399414	-471.4064025878906	780.259033203125	-98.81043243408203	-471.3113708496094	779.7529296875	-30.66701698303223	-849.7430419921875	1439.32568359375	171.8528289794922	-914.7001953125	1375.214477539062	199.5816497802734	-962.9205322265625	1086.536010742188	205.9156646728516	-975.5907592773438	1074.181396484375	144.7806701660156	-863.4009399414062	855.9215698242188	275.2036437988281	-944.2813110351562	838.993896484375	275.6731872558594	-965.8353881835938	1030.660034179688	214.6305541992188	-867.8870849609375	681.9656982421875	274.7101745605469	-863.3013305664062	762.9507446289062	300.6986389160156	-935.8436279296875	763.8464965820312	284.1390380859375	-774.7755126953125	1656.213745117188	137.7160339355469	-568.6174926757812	1686.100341796875	133.5854187011719	-674.7825927734375	1680.864501953125	233.067626953125	-649.1969604492188	1660.386474609375	30.15155601501465	-552.96875	925.0745239257812	-33.52790832519531	-886.39404296875	906.1005859375	161.8886108398438	-790.211669921875	933.6404418945312	209.6535949707031	-559.6541137695312	948.9262084960938	58.31364440917969	-521.4588623046875	505.4393005371094	140.1398162841797	-515.3862915039062	663.0731201171875	72.19778442382812	-586.5172729492188	30.36418533325195	90.94277191162109	-556.4578247070312	249.5477905273438	100.0746231079102	-486.5807495117188	38.39859390258789	288.3208312988281	-563.17919921875	42.04756927490234	259.3564453125	-494.8858642578125	36.52903366088867	174.1117401123047	-673.0250854492188	33.34787750244141	79.8760986328125	-906.4232788085938	475.4032287597656	90.82236480712891	-877.3279418945312	753.17919921875	171.581298828125	-1105.55810546875	130.4119567871094	-193.0801391601562	-950.2061767578125	350.9429931640625	21.9838695526123	-962.5576171875	35.37919235229492	-81.01554870605469	-960.8696899414062	57.597900390625	-146.4376068115234	-1055.915405273438	50.63959884643555	-102.239616394043	-1092.311889648438	161.3399353027344	-262.7232971191406	
219	2.18	-838.994384765625	985.6126708984375	4.486307621002197	-729.7876586914062	993.2188110351562	-71.43807220458984	-781.6895141601562	1084.74462890625	-24.80715370178223	-633.1810913085938	1265.105590820312	165.90234375	-788.3869018554688	1211.020874023438	-26.36649894714355	-764.2348022460938	1482.558715820312	30.82033348083496	-643.0466918945312	1377.120239257812	153.5225982666016	-875.105224609375	1358.33056640625	29.44197082519531	-717.2750244140625	1433.1728515625	-56.66981506347656	-590.864990234375	1454.190185546875	-37.13509368896484	-540.3843383789062	1328.359375	-99.99024963378906	-508.3861389160156	1107.708740234375	-105.3296813964844	-604.7879028320312	1100.12353515625	-135.1966705322266	-485.2535095214844	860.2667236328125	-14.89883041381836	-459.3098754882812	842.374755859375	-96.53748321533203	-487.9781188964844	1021.313598632812	-95.83298492431641	-495.1069946289062	692.5420532226562	-33.10086059570312	-461.3584289550781	781.8483276367188	-88.8291015625	-461.1854858398438	782.2118530273438	-20.65707206726074	-843.7041625976562	1440.714233398438	175.9637603759766	-908.6382446289062	1376.616943359375	203.6994781494141	-956.5689697265625	1087.96240234375	210.840087890625	-969.06005859375	1075.365112304688	149.7191925048828	-857.154541015625	857.6887817382812	281.3750305175781	-938.0145874023438	840.6964721679688	281.5431518554688	-959.4795532226562	1032.120361328125	219.7396240234375	-861.5436401367188	683.6881103515625	281.1639404296875	-857.0429077148438	764.7146606445312	306.9505615234375	-929.5943603515625	765.597900390625	290.28662109375	-768.8003540039062	1657.533569335938	141.7496032714844	-562.7470092773438	1687.622436523438	137.5140838623047	-668.8094482421875	1682.6201171875	236.9836578369141	-643.2407836914062	1661.470581054688	34.161376953125	-545.8253173828125	925.8883666992188	-27.84397888183594	-879.2789916992188	906.8521118164062	167.2545928955078	-783.4046630859375	934.9560546875	214.9890289306641	-552.620849609375	949.8226318359375	64.23027038574219	-517.9601440429688	504.6435546875	143.1354827880859	-510.4901428222656	662.8321533203125	76.43416595458984	-586.4535522460938	30.4123706817627	91.00344848632812	-554.9696044921875	249.2788391113281	101.4611968994141	-486.8048095703125	38.27342224121094	288.5019226074219	-563.2818603515625	41.91233062744141	259.4304504394531	-494.8529968261719	36.58987426757812	174.1427001953125	-672.9622802734375	33.34467315673828	79.81177520751953	-897.2591552734375	474.5036315917969	104.5332794189453	-869.6092529296875	754.1421508789062	178.9491729736328	-1101.687377929688	139.5188446044922	-186.0891265869141	-942.376220703125	351.211181640625	34.2708740234375	-961.5421142578125	34.75765991210938	-78.93412780761719	-959.3256225585938	60.44148635864258	-143.3531036376953	-1054.176513671875	54.8552360534668	-98.64820861816406	-1087.589233398438	172.3341369628906	-254.642333984375	
220	2.19	-832.0787353515625	986.1724243164062	9.458880424499512	-722.5418701171875	994.1519775390625	-65.95929718017578	-774.7748413085938	1085.449096679688	-19.6347770690918	-626.9625854492188	1266.563598632812	171.1598205566406	-781.1123657226562	1211.679809570312	-21.27871131896973	-757.8751220703125	1483.484375	35.02519607543945	-637.0306396484375	1378.556640625	158.4600677490234	-868.4938354492188	1359.059692382812	33.67121505737305	-710.56298828125	1433.90673828125	-52.15410995483398	-584.3154907226562	1455.23388671875	-32.19624710083008	-533.1703491210938	1329.427856445312	-94.56907653808594	-500.1908569335938	1108.933959960938	-98.93030548095703	-596.4241943359375	1100.627807617188	-129.1863861083984	-475.7974243164062	862.6883544921875	-5.834859848022461	-449.5902709960938	843.9732666015625	-87.24009704589844	-479.3535766601562	1022.773010253906	-88.56571197509766	-484.3335266113281	694.7525024414062	-21.86102485656738	-451.2293701171875	783.4939575195312	-78.69577789306641	-451.0544128417969	784.7559814453125	-10.5164041519165	-837.745849609375	1442.051635742188	180.0222320556641	-902.6661376953125	1377.966186523438	207.7551574707031	-950.2427978515625	1089.313598632812	215.7292327880859	-962.5166015625	1076.441284179688	154.6216583251953	-850.8860473632812	859.4608154296875	287.6328125	-931.69921875	842.3655395507812	287.4718933105469	-953.135009765625	1033.5048828125	224.8328399658203	-855.1193237304688	685.4415893554688	287.9056701660156	-850.7069091796875	766.50048828125	313.369384765625	-923.2706298828125	767.3320922851562	296.5555419921875	-762.8790283203125	1658.759155273438	145.7712249755859	-556.9677124023438	1689.065185546875	141.4581146240234	-662.91015625	1684.319091796875	240.8982696533203	-637.3328857421875	1662.461181640625	38.16353607177734	-538.8699340820312	926.6510009765625	-22.40940475463867	-872.2127075195312	907.4945068359375	172.5498352050781	-776.675537109375	936.2207641601562	220.1873626708984	-545.7362670898438	950.6314697265625	69.95459747314453	-514.6495361328125	503.8448181152344	145.9022674560547	-505.7731323242188	662.5511474609375	80.46553802490234	-586.37451171875	30.47389984130859	91.07539367675781	-553.5723876953125	249.0048675537109	102.7653274536133	-487.0322265625	38.20998382568359	288.6498718261719	-563.36474609375	41.78505325317383	259.4540405273438	-494.8097534179688	36.64277267456055	174.1510009765625	-672.9120483398438	33.33627700805664	79.74790191650391	-887.716796875	473.5891418457031	118.5728378295898	-861.7846069335938	755.0247192382812	186.4696044921875	-1097.209716796875	149.0593872070312	-178.3563537597656	-934.0086059570312	351.4586791992188	46.98181915283203	-960.1094970703125	34.16036605834961	-76.15531158447266	-957.3109741210938	63.69585037231445	-139.5498352050781	-1051.974243164062	59.86601638793945	-94.35206604003906	-1082.33642578125	183.4985198974609	-245.8641967773438	
221	2.2	-825.338134765625	986.6240234375	14.31766319274902	-715.5103149414062	995.0156860351562	-60.611328125	-768.0322875976562	1086.157470703125	-14.54150485992432	-620.8624267578125	1267.903930664062	176.3407287597656	-773.9019165039062	1212.305786132812	-16.27129936218262	-751.5751953125	1484.361938476562	39.21672439575195	-631.1061401367188	1379.875732421875	163.3662719726562	-861.9743041992188	1359.763549804688	37.85208511352539	-703.8805541992188	1434.614135742188	-47.67108917236328	-577.772705078125	1456.225341796875	-27.21138381958008	-525.9364013671875	1330.461547851562	-89.10466003417969	-491.9595336914062	1110.14404296875	-92.48651123046875	-587.97119140625	1101.105102539062	-123.2587432861328	-466.359619140625	865.1461791992188	3.316308259963989	-439.8027648925781	845.6240844726562	-77.80645751953125	-470.6869201660156	1024.231323242188	-81.24041748046875	-473.530517578125	697.015380859375	-10.48501205444336	-441.0293579101562	785.1831665039062	-68.42353057861328	-440.9418640136719	787.3710327148438	-0.271635502576828	-831.8666381835938	1443.318237304688	184.0393829345703	-896.7816162109375	1379.239868164062	211.7599945068359	-943.9581298828125	1090.574340820312	220.5731353759766	-955.9776611328125	1077.394653320312	159.4799041748047	-844.5958251953125	861.2265625	293.9553527832031	-925.332275390625	843.9820556640625	293.4403076171875	-946.8152465820312	1034.796875	229.8989410400391	-848.6010131835938	687.2232666015625	294.9499816894531	-844.2921142578125	768.3132934570312	319.9627990722656	-916.8599243164062	769.0280151367188	302.9277954101562	-757.0078125	1659.890869140625	149.7962341308594	-551.2509765625	1690.421997070312	145.4244384765625	-657.0765380859375	1685.934692382812	244.8246154785156	-631.4719848632812	1663.362182617188	42.16994094848633	-532.0353393554688	927.391357421875	-17.14409065246582	-865.2012939453125	908.0248413085938	177.7817230224609	-770.0304565429688	937.4306640625	225.2708282470703	-539.0072021484375	951.3346557617188	75.49545288085938	-511.5332336425781	503.0368041992188	148.4879760742188	-501.243408203125	662.19482421875	84.32086944580078	-586.2893676757812	30.54135513305664	91.15145111083984	-552.2656860351562	248.7215728759766	104.0137786865234	-487.2568054199219	38.16791534423828	288.7845153808594	-563.4421997070312	41.65552139282227	259.4542236328125	-494.7741088867188	36.68634033203125	174.1583862304688	-672.8792114257812	33.33246994018555	79.69377136230469	-877.7720947265625	472.6950073242188	132.8822479248047	-853.82080078125	755.8276977539062	194.1556243896484	-1092.052001953125	158.8422088623047	-169.8856353759766	-925.092041015625	351.726318359375	60.05794525146484	-958.159423828125	33.7441291809082	-72.51948547363281	-954.7064819335938	67.31568908691406	-134.8635711669922	-1049.17822265625	65.58048248291016	-89.22431945800781	-1076.481811523438	194.6036224365234	-236.4340972900391	
